<?xml version="1.0" encoding="UTF-8" standalone="no"?>
<!-- Created with Inkscape (http://www.inkscape.org/) -->

<svg
   xmlns:dc="http://purl.org/dc/elements/1.1/"
   xmlns:cc="http://creativecommons.org/ns#"
   xmlns:rdf="http://www.w3.org/1999/02/22-rdf-syntax-ns#"
   xmlns:svg="http://www.w3.org/2000/svg"
   xmlns="http://www.w3.org/2000/svg"
   xmlns:sodipodi="http://sodipodi.sourceforge.net/DTD/sodipodi-0.dtd"
   xmlns:inkscape="http://www.inkscape.org/namespaces/inkscape"
   width="856.23199"
   height="280.08118"
   id="svg2"
   version="1.1"
   inkscape:version="0.48.0 r9654"
   sodipodi:docname="New document 1">
  <defs
     id="defs4">
    <filter
       inkscape:collect="always"
       id="filter3793"
       x="-0.12510771"
       width="1.2502154"
       y="-0.99316049"
       height="2.986321"
       color-interpolation-filters="sRGB">
      <feGaussianBlur
         inkscape:collect="always"
         stdDeviation="35.439181"
         id="feGaussianBlur3795" />
    </filter>
    <filter
       inkscape:collect="always"
       id="filter3870"
       x="-0.29267463"
       width="1.5853492"
       y="-0.042727645"
       height="1.0854553"
       color-interpolation-filters="sRGB">
      <feGaussianBlur
         inkscape:collect="always"
         stdDeviation="1.7196837"
         id="feGaussianBlur3872" />
    </filter>
    <filter
       inkscape:collect="always"
       id="filter3874"
       x="-0.29267463"
       width="1.5853492"
       y="-0.042727645"
       height="1.0854553"
       color-interpolation-filters="sRGB">
      <feGaussianBlur
         inkscape:collect="always"
         stdDeviation="1.7196837"
         id="feGaussianBlur3876" />
    </filter>
    <filter
       inkscape:collect="always"
       id="filter3915"
       x="-0.17231093"
       width="1.3446219"
       y="-0.75669426"
       height="2.5133884"
       color-interpolation-filters="sRGB">
      <feGaussianBlur
         inkscape:collect="always"
         stdDeviation="8.1399756"
         id="feGaussianBlur3917" />
    </filter>
    <filter
       inkscape:collect="always"
       id="filter3933"
       x="-0.21764681"
       width="1.4352936"
       y="-0.49180964"
       height="1.9836193"
       color-interpolation-filters="sRGB">
      <feGaussianBlur
         inkscape:collect="always"
         stdDeviation="7.3844451"
         id="feGaussianBlur3935" />
    </filter>
    <filter
       inkscape:collect="always"
       id="filter3955"
       x="-0.073353834"
       width="1.1467077"
       y="-0.16801266"
       height="1.3360254"
       color-interpolation-filters="sRGB">
      <feGaussianBlur
         inkscape:collect="always"
         stdDeviation="1.6672178"
         id="feGaussianBlur3957" />
    </filter>
  </defs>
  <sodipodi:namedview
     id="base"
     pagecolor="#ffffff"
     bordercolor="#666666"
     borderopacity="1.0"
     inkscape:pageopacity="0.0"
     inkscape:pageshadow="2"
     inkscape:zoom="0.49497475"
     inkscape:cx="308.73459"
     inkscape:cy="475.24706"
     inkscape:document-units="px"
     inkscape:current-layer="layer1"
     showgrid="false"
     fit-margin-top="0"
     fit-margin-left="0"
     fit-margin-right="0"
     fit-margin-bottom="0"
     inkscape:window-width="1680"
     inkscape:window-height="1024"
     inkscape:window-x="0"
     inkscape:window-y="0"
     inkscape:window-maximized="0" />
  <metadata
     id="metadata7">
    <rdf:RDF>
      <cc:Work
         rdf:about="">
        <dc:format>image/svg+xml</dc:format>
        <dc:type
           rdf:resource="http://purl.org/dc/dcmitype/StillImage" />
        <dc:title></dc:title>
      </cc:Work>
    </rdf:RDF>
  </metadata>
  <g
     inkscape:label="Layer 1"
     inkscape:groupmode="layer"
     id="layer1"
     transform="translate(60.201417,-468.31561)">
    <g
       id="g3886"
       transform="matrix(0.99611359,0.0880779,-0.0880779,0.99611359,55.211927,-30.063072)">
      <path
         inkscape:connector-curvature="0"
         id="path3884"
         d="m 702.28571,586.36218 14.28571,42.85714 8.57143,-50 z"
         style="fill:#ffffff;stroke:#000000;stroke-width:1px;stroke-linecap:butt;stroke-linejoin:miter;stroke-opacity:1" />
      <path
         style="fill:#ffffff;stroke:#000000;stroke-width:1px;stroke-linecap:butt;stroke-linejoin:miter;stroke-opacity:1"
         d="m 682.28571,598.36218 14.28571,42.85714 8.57143,-50 z"
         id="path3882"
         inkscape:connector-curvature="0" />
      <path
         inkscape:connector-curvature="0"
         id="path3878"
         d="m 664.28571,612.36218 14.28571,42.85714 8.57143,-50 z"
         style="fill:#ffffff;stroke:#000000;stroke-width:1px;stroke-linecap:butt;stroke-linejoin:miter;stroke-opacity:1" />
      <path
         sodipodi:nodetypes="cccc"
         inkscape:connector-curvature="0"
         id="path3880"
         d="M 97.14286,602.36219 C 108.57143,579.50504 110,568.07647 110,568.07647 l -99.999997,54.28572 81.428567,2.85714"
         style="fill:#5b5b5b;fill-opacity:1;stroke:#000000;stroke-width:1px;stroke-linecap:butt;stroke-linejoin:miter;stroke-opacity:1" />
      <g
         id="g3808"
         transform="translate(1831.4286,228.57143)">
        <path
           sodipodi:type="arc"
           style="fill:#ffffff"
           id="path3810"
           sodipodi:cx="-1241.4286"
           sodipodi:cy="243.79076"
           sodipodi:rx="41.42857"
           sodipodi:ry="40"
           d="m -1200,243.79076 c 0,22.09139 -18.5482,40 -41.4286,40 -22.8804,0 -41.4286,-17.90861 -41.4286,-40 0,-22.09139 18.5482,-40 41.4286,-40 22.8804,0 41.4286,17.90861 41.4286,40 z"
           transform="matrix(0.68965516,0,0,0.75,-412.41827,109.11481)" />
        <path
           inkscape:connector-curvature="0"
           id="path3812"
           d="m -1268.2322,263.786 c -15.7795,0 -28.5937,13.43146 -28.5937,30 0,11.37521 6.0512,21.25731 14.9375,26.34375 -0.4177,-2.0414 -0.6562,-4.17128 -0.6562,-6.34375 0,-16.56854 12.8141,-30 28.5937,-30 4.9311,0 9.5766,1.31583 13.625,3.625 -2.7875,-13.50068 -14.2138,-23.625 -27.9063,-23.625 z"
           style="fill:#000000" />
      </g>
      <g
         style="fill:#333333"
         transform="matrix(0.97394866,0.22676864,-0.22676864,0.97394866,150.43701,-63.226682)"
         id="g2992">
        <path
           inkscape:connector-curvature="0"
           style="fill:#333333;stroke:#000000;stroke-width:1px;stroke-linecap:butt;stroke-linejoin:miter;stroke-opacity:1"
           d="m 607.46875,467.28125 c -68.9324,0.52709 -154.66754,9.63812 -235.0625,40.15625 L 360,506.65625 359.375,512 c 0.52993,-0.007 1.03566,-0.0222 1.5625,-0.0312 -0.54143,0.22106 -1.08416,0.43316 -1.625,0.65625 L 359.375,512 c -24.57421,0.34241 -52.28482,-1.10267 -65.09375,-8.21875 L 268.5625,489.5 c 0,0 -25.70982,45.71429 -14.28125,60 3.19676,3.99594 12.45223,6.20547 24.09375,7.3125 C 160.13179,628.49834 -81.21045,774.68625 108.5625,592.375 -39.823315,564.26573 -65.700893,746.64732 -22.84375,775.21875 c 42.857143,28.57143 462.83482,-114.28571 451.40625,-80 -11.42857,34.28572 -14.28125,40 -14.28125,40 0,0 360.00447,-248.58482 325.71875,-257.15625 -15.53571,-3.88393 -66.26994,-11.28792 -132.53125,-10.78125 z"
           id="path2987" />
      </g>
      <path
         inkscape:connector-curvature="0"
         id="path2995"
         d="m 708.4947,569.23716 c 0,0 -637.703262,48.49289 -658.774905,67.06632 -21.071641,18.57345 -21.071641,18.57345 -21.071641,18.57345 0,0 599.397146,-33.19378 615.323506,-45.6492 15.92637,-12.45541 64.52304,-39.99057 64.52304,-39.99057 z"
         style="fill:#ffffff;stroke:#000000;stroke-width:0.82518095px;stroke-linecap:butt;stroke-linejoin:miter;stroke-opacity:1;filter:url(#filter3793)" />
      <g
         transform="translate(1811.4286,277.14286)"
         id="g3804">
        <path
           transform="matrix(0.68965516,0,0,0.75,-412.41827,109.11481)"
           d="m -1200,243.79076 c 0,22.09139 -18.5482,40 -41.4286,40 -22.8804,0 -41.4286,-17.90861 -41.4286,-40 0,-22.09139 18.5482,-40 41.4286,-40 22.8804,0 41.4286,17.90861 41.4286,40 z"
           sodipodi:ry="40"
           sodipodi:rx="41.42857"
           sodipodi:cy="243.79076"
           sodipodi:cx="-1241.4286"
           id="path3801"
           style="fill:#ffffff"
           sodipodi:type="arc" />
        <path
           style="fill:#000000"
           d="m -1268.2322,263.786 c -15.7795,0 -28.5937,13.43146 -28.5937,30 0,11.37521 6.0512,21.25731 14.9375,26.34375 -0.4177,-2.0414 -0.6562,-4.17128 -0.6562,-6.34375 0,-16.56854 12.8141,-30 28.5937,-30 4.9311,0 9.5766,1.31583 13.625,3.625 -2.7875,-13.50068 -14.2138,-23.625 -27.9063,-23.625 z"
           id="path3797"
           inkscape:connector-curvature="0" />
      </g>
      <path
         sodipodi:nodetypes="sscs"
         inkscape:connector-curvature="0"
         id="path3814"
         d="m 464.6429,573.43361 c 12.74326,-15.60038 -3.92863,27.14286 0.35707,40 12.55189,37.6558 6.42856,53.21429 6.42856,53.21429 0,0 -23.0813,-73.26503 -6.78563,-93.21429 z"
         style="fill:#000000;stroke:#000000;stroke-width:1px;stroke-linecap:butt;stroke-linejoin:miter;stroke-opacity:1" />
      <path
         style="fill:#000000;stroke:#000000;stroke-width:1px;stroke-linecap:butt;stroke-linejoin:miter;stroke-opacity:1"
         d="m 444.6429,573.43361 c 12.74326,-15.60038 -3.92863,27.14286 0.35707,40 12.55189,37.6558 6.42856,53.21429 6.42856,53.21429 0,0 -23.0813,-73.26503 -6.78563,-93.21429 z"
         id="path3816"
         inkscape:connector-curvature="0"
         sodipodi:nodetypes="sscs" />
      <path
         style="opacity:0.80239521;fill:#ffffff;stroke:none;filter:url(#filter3870)"
         d="m 470.6429,573.43361 c 12.74326,-15.60038 -3.92863,27.14286 0.35707,40 12.55189,37.6558 6.42856,53.21429 6.42856,53.21429 0,0 -23.0813,-73.26503 -6.78563,-93.21429 z"
         id="path3818"
         inkscape:connector-curvature="0"
         sodipodi:nodetypes="sscs" />
      <path
         sodipodi:nodetypes="sscs"
         inkscape:connector-curvature="0"
         id="path3820"
         d="m 450.6429,573.43361 c 12.74326,-15.60038 -3.92863,27.14286 0.35707,40 12.55189,37.6558 6.42856,53.21429 6.42856,53.21429 0,0 -23.0813,-73.26503 -6.78563,-93.21429 z"
         style="opacity:0.80239521;fill:#ffffff;stroke:none;filter:url(#filter3874)" />
    </g>
    <path
       sodipodi:type="arc"
       style="opacity:0.50299401;fill:#ffffff;fill-opacity:1;stroke:none;filter:url(#filter3915)"
       id="path3905"
       sodipodi:cx="-481.42856"
       sodipodi:cy="215.93361"
       sodipodi:rx="57.142857"
       sodipodi:ry="10.714286"
       d="m -424.2857,215.93361 c 0,5.91734 -25.58373,10.71428 -57.14286,10.71428 -31.55913,0 -57.14285,-4.79694 -57.14285,-10.71428 0,-5.91734 25.58372,-10.71429 57.14285,-10.71429 31.55913,0 57.14286,4.79695 57.14286,10.71429 z"
       transform="matrix(0.99174359,0.1282367,-0.1282367,0.99174359,1145.1443,424.94822)" />
    <path
       style="fill:#ffffff;stroke:#000000;stroke-width:1px;stroke-linecap:butt;stroke-linejoin:miter;stroke-opacity:1;filter:url(#filter3933)"
       d="m -14.285714,546.6479 c 0,0 50,-40 65.714285,-35.71429 15.714286,4.28572 15.714286,4.28572 15.714286,4.28572 0,0 -74.2857141,12.85714 -81.428571,31.42857 z"
       id="path3919"
       inkscape:connector-curvature="0" />
    <path
       style="opacity:0.5837838;fill:#000000;stroke:none;filter:url(#filter3955)"
       d="m 665.69053,654.78614 54.54824,-20.5191 -0.50508,4.73747 -52.52793,19.07813 z"
       id="path3937"
       inkscape:connector-curvature="0"
       transform="matrix(1,0,0,0.97396444,0,16.405485)"
       sodipodi:nodetypes="ccccc" />
  </g>
</svg>
